<svg width="131" height="25" viewBox="0 0 131 25" fill="none" xmlns="http://www.w3.org/2000/svg">
<path d="M28.7767 11.2978C28.7483 11.1776 28.6907 11.0663 28.6089 10.9737C28.5271 10.8811 28.4238 10.8102 28.308 10.7672L22.907 8.74126L24.2814 1.86658C24.3125 1.70684 24.2909 1.54133 24.2197 1.395C24.1485 1.24866 24.0316 1.12946 23.8867 1.05538C23.7418 0.98129 23.5768 0.95634 23.4164 0.984291C23.2561 1.01224 23.1093 1.09158 22.998 1.21033L12.498 12.4603C12.4127 12.5502 12.351 12.6598 12.3184 12.7793C12.2858 12.8988 12.2833 13.0245 12.3112 13.1453C12.3391 13.266 12.3964 13.3779 12.4781 13.4711C12.5597 13.5642 12.6632 13.6357 12.7792 13.6791L18.182 15.705L16.8114 22.5722C16.7803 22.7319 16.802 22.8975 16.8732 23.0438C16.9444 23.1901 17.0612 23.3093 17.2061 23.3834C17.351 23.4575 17.5161 23.4824 17.6764 23.4545C17.8367 23.4265 17.9836 23.3472 18.0949 23.2285L28.5949 11.9785C28.6786 11.8886 28.739 11.7795 28.7707 11.6608C28.8024 11.5421 28.8045 11.4175 28.7767 11.2978ZM18.7999 20.2819L19.7814 15.3713C19.8165 15.1971 19.7887 15.0161 19.7029 14.8606C19.617 14.705 19.4787 14.585 19.3127 14.5219L14.3589 12.661L22.292 4.16158L21.3114 9.0722C21.2763 9.24636 21.3041 9.42733 21.39 9.58288C21.4758 9.73843 21.6141 9.85846 21.7802 9.92158L26.7302 11.7778L18.7999 20.2819Z" fill="white"/>
<path d="M51.0386 18.2195H49.5073L43.2808 8.62573H43.2183C43.2339 8.88094 43.2521 9.17261 43.2729 9.50073C43.2938 9.82365 43.3094 10.17 43.3198 10.5398C43.3354 10.9044 43.3433 11.2768 43.3433 11.657V18.2195H42.1089V6.79761H43.6323L49.8354 16.3601H49.8901C49.8797 16.1778 49.8667 15.92 49.8511 15.5867C49.8354 15.2481 49.8198 14.8861 49.8042 14.5007C49.7938 14.1101 49.7886 13.7481 49.7886 13.4148V6.79761H51.0386V18.2195ZM55.2573 9.65698V18.2195H53.9604V9.65698H55.2573ZM54.6245 6.45386C54.8381 6.45386 55.0203 6.52417 55.1714 6.66479C55.3276 6.80021 55.4058 7.01375 55.4058 7.30542C55.4058 7.59188 55.3276 7.80542 55.1714 7.94604C55.0203 8.08667 54.8381 8.15698 54.6245 8.15698C54.4006 8.15698 54.2131 8.08667 54.062 7.94604C53.9162 7.80542 53.8433 7.59188 53.8433 7.30542C53.8433 7.01375 53.9162 6.80021 54.062 6.66479C54.2131 6.52417 54.4006 6.45386 54.6245 6.45386ZM60.3979 22.0632C59.2729 22.0632 58.4058 21.8523 57.7964 21.4304C57.187 21.0138 56.8823 20.4278 56.8823 19.6726C56.8823 19.1361 57.0516 18.6778 57.3901 18.2976C57.7339 17.9174 58.2078 17.6648 58.812 17.5398C58.5881 17.4356 58.3953 17.2794 58.2339 17.071C58.0776 16.8627 57.9995 16.6231 57.9995 16.3523C57.9995 16.0398 58.0854 15.7664 58.2573 15.532C58.4344 15.2924 58.7026 15.0632 59.062 14.8445C58.6141 14.6622 58.2495 14.3549 57.9683 13.9226C57.6922 13.4851 57.5542 12.9773 57.5542 12.3992C57.5542 11.7846 57.6818 11.2611 57.937 10.8289C58.1922 10.3914 58.562 10.058 59.0464 9.82886C59.5308 9.59969 60.1167 9.48511 60.8042 9.48511C60.9552 9.48511 61.1063 9.49292 61.2573 9.50854C61.4136 9.51896 61.562 9.53719 61.7026 9.56323C61.8433 9.58407 61.9657 9.61011 62.0698 9.64136H65.0073V10.4773L63.4292 10.6726C63.5854 10.8757 63.7157 11.1205 63.8198 11.407C63.924 11.6934 63.9761 12.0111 63.9761 12.3601C63.9761 13.2143 63.687 13.894 63.1089 14.3992C62.5308 14.8992 61.7365 15.1492 60.7261 15.1492C60.4865 15.1492 60.2417 15.1283 59.9917 15.0867C59.7365 15.2273 59.5412 15.3835 59.4058 15.5554C59.2756 15.7273 59.2104 15.9252 59.2104 16.1492C59.2104 16.3158 59.2599 16.4486 59.3589 16.5476C59.4631 16.6466 59.6115 16.7195 59.8042 16.7664C59.9969 16.808 60.2287 16.8289 60.4995 16.8289H62.0073C62.9396 16.8289 63.6532 17.0242 64.1479 17.4148C64.6479 17.8054 64.8979 18.3757 64.8979 19.1257C64.8979 20.0736 64.5125 20.8002 63.7417 21.3054C62.9709 21.8106 61.8563 22.0632 60.3979 22.0632ZM60.437 21.0476C61.1453 21.0476 61.7313 20.9747 62.1948 20.8289C62.6636 20.6882 63.0125 20.4825 63.2417 20.2117C63.4761 19.946 63.5933 19.6283 63.5933 19.2585C63.5933 18.9148 63.5151 18.6544 63.3589 18.4773C63.2026 18.3054 62.9735 18.1908 62.6714 18.1335C62.3693 18.071 61.9995 18.0398 61.562 18.0398H60.0776C59.6922 18.0398 59.3563 18.0997 59.0698 18.2195C58.7834 18.3393 58.562 18.5164 58.4058 18.7507C58.2547 18.9851 58.1792 19.2768 58.1792 19.6257C58.1792 20.0893 58.3745 20.4408 58.7651 20.6804C59.1558 20.9252 59.7131 21.0476 60.437 21.0476ZM60.7729 14.2039C61.3927 14.2039 61.8589 14.0476 62.1714 13.7351C62.4839 13.4226 62.6401 12.9669 62.6401 12.3679C62.6401 11.7273 62.4813 11.2481 62.1636 10.9304C61.8459 10.6075 61.3771 10.446 60.7573 10.446C60.1636 10.446 59.7052 10.6127 59.3823 10.946C59.0646 11.2742 58.9058 11.7559 58.9058 12.3914C58.9058 12.9747 59.0672 13.4226 59.3901 13.7351C59.7131 14.0476 60.174 14.2039 60.7729 14.2039ZM67.9917 6.06323V9.69604C67.9917 9.90438 67.9865 10.1153 67.9761 10.3289C67.9657 10.5372 67.9474 10.7299 67.9214 10.907H68.0073C68.1844 10.6049 68.4084 10.3523 68.6792 10.1492C68.9552 9.94084 69.2677 9.78459 69.6167 9.68042C69.9657 9.57104 70.3354 9.51636 70.7261 9.51636C71.4136 9.51636 71.9865 9.62573 72.4448 9.84448C72.9084 10.0632 73.2547 10.4018 73.4839 10.8601C73.7183 11.3184 73.8354 11.9122 73.8354 12.6414V18.2195H72.5542V12.7273C72.5542 12.0138 72.3901 11.4799 72.062 11.1257C71.7391 10.7716 71.2417 10.5945 70.5698 10.5945C69.9344 10.5945 69.4266 10.7169 69.0464 10.9617C68.6714 11.2013 68.4006 11.5554 68.2339 12.0242C68.0724 12.4929 67.9917 13.0658 67.9917 13.7429V18.2195H66.6948V6.06323H67.9917ZM79.2729 17.3132C79.4865 17.3132 79.7052 17.295 79.9292 17.2585C80.1532 17.2221 80.3354 17.1778 80.4761 17.1257V18.1335C80.325 18.2013 80.1141 18.2585 79.8433 18.3054C79.5776 18.3523 79.3172 18.3757 79.062 18.3757C78.6089 18.3757 78.1974 18.2976 77.8276 18.1414C77.4578 17.9799 77.161 17.7091 76.937 17.3289C76.7183 16.9486 76.6089 16.4226 76.6089 15.7507V10.6726H75.3901V10.0398L76.6167 9.53198L77.1323 7.67261H77.9136V9.65698H80.4214V10.6726H77.9136V15.7117C77.9136 16.2481 78.036 16.6492 78.2808 16.9148C78.5308 17.1804 78.8615 17.3132 79.2729 17.3132ZM96.4683 12.4929C96.4683 13.3731 96.3563 14.1752 96.1323 14.8992C95.9084 15.6179 95.575 16.2377 95.1323 16.7585C94.6948 17.2742 94.1506 17.6726 93.4995 17.9539C92.8485 18.2351 92.0933 18.3757 91.2339 18.3757C90.3485 18.3757 89.575 18.2351 88.9136 17.9539C88.2573 17.6726 87.7104 17.2716 87.2729 16.7507C86.8407 16.2299 86.5151 15.6075 86.2964 14.8835C86.0828 14.1596 85.9761 13.3575 85.9761 12.4773C85.9761 11.3106 86.1688 10.2872 86.5542 9.40698C86.9396 8.52677 87.5229 7.84188 88.3042 7.35229C89.0907 6.86271 90.075 6.61792 91.2573 6.61792C92.3875 6.61792 93.3381 6.86011 94.1089 7.34448C94.8849 7.82886 95.4709 8.51115 95.8667 9.39136C96.2677 10.2664 96.4683 11.3002 96.4683 12.4929ZM87.3745 12.4929C87.3745 13.4617 87.5125 14.3002 87.7886 15.0085C88.0646 15.7169 88.4865 16.2638 89.0542 16.6492C89.6271 17.0346 90.3537 17.2273 91.2339 17.2273C92.1193 17.2273 92.8433 17.0346 93.4058 16.6492C93.9735 16.2638 94.3927 15.7169 94.6636 15.0085C94.9344 14.3002 95.0698 13.4617 95.0698 12.4929C95.0698 11.019 94.7599 9.86792 94.1401 9.03979C93.5256 8.20646 92.5646 7.78979 91.2573 7.78979C90.3719 7.78979 89.6427 7.9799 89.0698 8.36011C88.4969 8.74032 88.0698 9.28198 87.7886 9.98511C87.5125 10.683 87.3745 11.519 87.3745 12.4929ZM102.101 6.79761C103.039 6.79761 103.812 6.91479 104.421 7.14917C105.036 7.37834 105.494 7.7299 105.796 8.20386C106.098 8.67782 106.25 9.28198 106.25 10.0164C106.25 10.6205 106.14 11.1257 105.921 11.532C105.703 11.933 105.416 12.2585 105.062 12.5085C104.708 12.7585 104.33 12.9513 103.929 13.0867L107.062 18.2195H105.515L102.718 13.4539H100.343V18.2195H99.0151V6.79761H102.101ZM102.023 7.94604H100.343V12.3289H102.156C103.088 12.3289 103.773 12.1388 104.21 11.7585C104.653 11.3783 104.875 10.8184 104.875 10.0789C104.875 9.30282 104.64 8.75334 104.171 8.43042C103.708 8.1075 102.992 7.94604 102.023 7.94604ZM113.914 18.2195L110.078 8.11011H110.015C110.036 8.32365 110.054 8.58407 110.07 8.89136C110.085 9.19865 110.098 9.53459 110.109 9.89917C110.119 10.2585 110.125 10.6257 110.125 11.0007V18.2195H108.89V6.79761H110.859L114.476 16.2976H114.531L118.203 6.79761H120.156V18.2195H118.843V10.907C118.843 10.5684 118.848 10.2299 118.859 9.89136C118.869 9.54761 118.882 9.22469 118.898 8.92261C118.914 8.61532 118.929 8.34969 118.945 8.12573H118.882L115 18.2195H113.914Z" fill="#F5F5F5"/>
</svg>
